<?xml version="1.0" encoding="utf-8"?>
<!-- Generator: Adobe Illustrator 24.0.2, SVG Export Plug-In . SVG Version: 6.00 Build 0)  -->
<svg version="1.1" id="Livello_1" xmlns="http://www.w3.org/2000/svg" xmlns:xlink="http://www.w3.org/1999/xlink" x="0px" y="0px"
	 viewBox="0 0 50 50" style="enable-background:new 0 0 50 50;" xml:space="preserve">
<style type="text/css">
	.st0{fill:#F25757;}
</style>
<g>
	<g>
		<path class="st0" d="M45.1,16.9C45.1,16.9,45.1,16.9,45.1,16.9C45.1,16.9,45.1,16.9,45.1,16.9c-0.8-1.5-1.7-2.9-2.9-4.1
			c0.7-1.6,1-2.9,1-3.8c0-4.4-3.6-7.9-7.9-7.9c-3.1,0-5.8,1.8-7.1,4.4c-0.7-0.1-1.3-0.1-2-0.1c0,0,0,0,0,0c-0.1,0-0.3,0-0.4,0
			c0,0,0,0,0,0c0,0,0,0,0,0c-3.2,0-6.3,0.7-9.2,2c-2.7,1.2-5.1,3-7,5.2c-4.1,0.3-7.3,3.7-7.3,7.9c0,1.2,0.6,3,1.8,5.3
			c0,0.4,0,0.9,0,1.3c0,2.9,0.6,5.8,1.7,8.5c1.1,2.6,2.7,4.9,4.7,6.9c2,2,4.3,3.6,6.9,4.7c2.7,1.1,5.5,1.7,8.5,1.7c0,0,0,0,0,0
			c0,0,0,0,0,0c0.2,0,0.3,0,0.4,0c0,0,0,0,0,0c2.9-0.1,5.7-0.7,8.3-1.8c2.5-1.1,4.8-2.7,6.8-4.7c2-2,3.5-4.3,4.6-6.9
			c1.1-2.7,1.7-5.5,1.7-8.4C47.6,23.5,46.7,20,45.1,16.9z M38.7,26.3c0-2.2-0.3-4.3-0.7-6.2c0.4-0.6,0.9-1.4,1.3-2.1h4.5
			c1.3,2.6,2,5.4,2.1,8.3H38.7z M25,7.1v9.3h-8c-0.1-0.2-0.2-0.3-0.3-0.5c1.6-3.9,4-6.1,5.7-7.4C23.5,7.9,24.4,7.4,25,7.1z M17.8,18
			H25v8.3h-9c1.4-2.6,2.1-4.6,2.1-5.9C18.1,19.6,18,18.8,17.8,18z M14.8,28.5c0.1-0.2,0.3-0.5,0.4-0.7H25V36h-9
			C15.3,33.7,14.9,31.2,14.8,28.5z M25,37.5V47c-0.7-0.3-1.7-0.8-2.8-1.7c-1.8-1.3-4.1-3.8-5.7-7.8H25z M26.6,37.5h8.9
			c-2.6,6.7-7.3,9.1-8.9,9.7V37.5z M26.6,36v-8.1h10.6c-0.1,3-0.5,5.7-1.2,8.1H26.6z M26.6,26.3V18h4.7c1.7,2.8,3.4,5.2,3.5,5.2
			c0.1,0.2,0.4,0.3,0.6,0.3c0.2,0,0.5-0.1,0.6-0.3c0,0,0.4-0.5,0.9-1.3c0.2,1.4,0.3,2.9,0.4,4.4L26.6,26.3L26.6,26.3z M43.1,16.5
			h-2.8c0.5-0.8,0.9-1.5,1.2-2.2C42.1,15,42.6,15.7,43.1,16.5z M35.3,2.5c3.5,0,6.4,2.9,6.4,6.4c0,2.3-2.8,7.1-5.1,10.5
			c0,0,0,0.1-0.1,0.1c-0.5,0.7-0.9,1.3-1.3,1.9c-2.2-3.2-6.4-9.7-6.4-12.5C28.9,5.4,31.8,2.5,35.3,2.5z M30.4,16.5h-3.8V6.8
			c0.4,0,0.7,0,1.1,0.1c-0.2,0.7-0.3,1.3-0.3,2.1C27.4,10.5,28.4,13.1,30.4,16.5z M21.9,7.2c-0.1,0.1-0.2,0.1-0.2,0.2
			c-1.2,0.9-2.4,2-3.4,3.2c-1,1.2-1.9,2.6-2.6,4.2c-1.1-1.1-2.5-1.8-4.1-2.1C14.4,9.8,18,7.9,21.9,7.2z M10.2,14
			c3.5,0,6.4,2.9,6.4,6.4c0,2.8-4.2,9.3-6.4,12.5C8,29.7,3.8,23.2,3.8,20.4C3.8,16.9,6.7,14,10.2,14z M5.6,28.5
			C5.7,28.7,5.8,29,6,29.2c1.8,2.9,3.6,5.4,3.6,5.5C9.7,34.8,10,35,10.2,35c0.2,0,0.5-0.1,0.6-0.3c0,0,1.2-1.7,2.6-3.9
			c0.2,1.9,0.5,3.6,1,5.2H7.6C6.5,33.7,5.8,31.2,5.6,28.5z M8.4,37.5h6.5c0.7,2,1.7,3.9,2.9,5.4c1,1.4,2.2,2.6,3.6,3.6
			c0.2,0.1,0.4,0.3,0.6,0.4C16.2,45.9,11.3,42.3,8.4,37.5z M30.3,46.9c0.2-0.1,0.4-0.3,0.6-0.4c1.3-1,2.5-2.2,3.5-3.6
			c1.1-1.6,2.1-3.3,2.8-5.3h6.1C40.4,42.2,35.7,45.6,30.3,46.9z M44,36h-6.4c0.7-2.5,1.1-5.2,1.1-8.1h7.3C46,30.7,45.2,33.5,44,36z"
			/>
		<path class="st0" d="M35.3,12.2c2,0,3.7-1.7,3.7-3.7s-1.7-3.7-3.7-3.7s-3.7,1.7-3.7,3.7S33.3,12.2,35.3,12.2z M35.3,6.3
			c1.2,0,2.2,1,2.2,2.2c0,1.2-1,2.2-2.2,2.2c-1.2,0-2.2-1-2.2-2.2S34.1,6.3,35.3,6.3z"/>
		<path class="st0" d="M13.9,19.9c0-2-1.7-3.7-3.7-3.7s-3.7,1.7-3.7,3.7s1.7,3.7,3.7,3.7C12.3,23.7,13.9,22,13.9,19.9z M8,19.9
			c0-1.2,1-2.2,2.2-2.2s2.2,1,2.2,2.2c0,1.2-1,2.2-2.2,2.2S8,21.1,8,19.9z"/>
	</g>
</g>
</svg>
