<?xml version="1.0" encoding="utf-8"?>
<!-- Generator: Adobe Illustrator 24.0.2, SVG Export Plug-In . SVG Version: 6.00 Build 0)  -->
<svg version="1.1" id="Livello_1" xmlns="http://www.w3.org/2000/svg" xmlns:xlink="http://www.w3.org/1999/xlink" x="0px" y="0px"
	 viewBox="0 0 50 50" style="enable-background:new 0 0 50 50;" xml:space="preserve">
<style type="text/css">
	.st0{fill:#F25757;}
</style>
<title>pictures</title>
<path class="st0" d="M44.5,4.5c1.4,0,2.6,1.2,2.6,2.6v32.4c0,1.4-1.2,2.6-2.6,2.6H10.7c-1.4,0-2.6-1.2-2.6-2.6V7.1
	c0-1.4,1.2-2.6,2.6-2.6L44.5,4.5z M44.5,7H10.7c0,0,0,0,0,0v32.4c0,0,0,0,0,0h33.7c0,0,0,0,0,0L44.5,7C44.5,7,44.5,7,44.5,7z
	 M41.9,8.4c0.7,0,1.3,0.6,1.3,1.3v24.7c0,0.7-0.6,1.3-1.3,1.3H13.3c-0.7,0-1.3-0.6-1.3-1.3V9.6c0-0.7,0.6-1.3,1.3-1.3L41.9,8.4z
	 M6.7,8.4C7.4,8.4,8,9,8,9.6c0,0.7-0.6,1.3-1.3,1.3H5.5c0,0,0,0,0,0v33.7c0,0,0,0,0,0h33.7c0,0,0,0,0,0v-1.2c0-0.7,0.6-1.3,1.3-1.3
	h0c0.7,0,1.3,0.6,1.3,1.3v1.2c0,1.4-1.2,2.6-2.6,2.6H5.5c-1.4,0-2.6-1.2-2.6-2.6V10.9c0-1.4,1.2-2.6,2.6-2.6L6.7,8.4z M40.6,10.9
	h-26V28l0.3-0.4c0,0,0,0,0,0l0,0c0.5-0.5,1.2-0.8,2-0.8h0c0.7,0,1.4,0.3,2,0.8l0,0c0,0,0,0,0,0l4.1,3.9l8.9-8.9
	c0.6-0.5,1.3-0.7,2-0.7c0.7,0,1.3,0.3,1.9,0.6c0.1,0,0.1,0.1,0.2,0.1l4.7,4.7V10.9z M23.1,13.6c1.8,0,3.2,1.5,3.2,3.2
	S24.8,20,23.1,20c-1.8,0-3.2-1.4-3.2-3.2S21.3,13.6,23.1,13.6z M23.1,16.1c-0.4,0-0.7,0.3-0.7,0.7s0.3,0.7,0.7,0.7s0.7-0.3,0.7-0.7
	C23.7,16.4,23.4,16.1,23.1,16.1z M33.9,24.3c-0.1,0-0.2,0-0.2,0.1L25,33h15.6v-2.1l-6.5-6.5C34,24.3,33.9,24.3,33.9,24.3L33.9,24.3z
	 M16.9,29.3c-0.1,0-0.1,0-0.2,0l-2.2,2.5V33h6.3l-3.8-3.6c0,0,0,0,0,0l0,0C17.1,29.3,17,29.3,16.9,29.3z"/>
</svg>
