<?xml version="1.0" encoding="utf-8"?>
<!-- Generator: Adobe Illustrator 24.0.2, SVG Export Plug-In . SVG Version: 6.00 Build 0)  -->
<svg version="1.1" id="Livello_1" xmlns="http://www.w3.org/2000/svg" xmlns:xlink="http://www.w3.org/1999/xlink" x="0px" y="0px"
	 viewBox="0 0 50 50" style="enable-background:new 0 0 50 50;" xml:space="preserve">
<style type="text/css">
	.st0{fill:#F25757;}
</style>
<g transform="translate(0,-952.36218)">
	<path class="st0" d="M25,952.9c-13.2,0-24,10.8-24,24c0,5,1.6,9.7,4.2,13.5l-4.1,8.9c-0.3,0.6,0,1.3,0.6,1.5c0.3,0.1,0.7,0.1,1,0
		l8.9-4.1c3.9,2.6,8.5,4.2,13.5,4.2c13.2,0,24-10.8,24-24S38.2,952.9,25,952.9z M25,955.1c12,0,21.7,9.7,21.7,21.7
		c0,12-9.7,21.7-21.7,21.7c-4.8,0-9.2-1.5-12.8-4.2c-0.3-0.2-0.8-0.3-1.2-0.1l-6.6,3.1l3.1-6.6c0.2-0.4,0.1-0.8-0.1-1.2
		c-2.6-3.6-4.2-8-4.2-12.8C3.3,964.9,13,955.1,25,955.1z M25,959.7c-6.3,0-11.4,5.1-11.4,11.3c0,3.6,1.4,5.6,2.5,7.2
		c1.2,1.5,2.1,2.6,2.1,5.5c0,0.6,0.5,1.1,1.1,1.1h11.4c0.6,0,1.1-0.5,1.1-1.1c0-2.9,0.9-3.9,2.1-5.5c1.2-1.6,2.5-3.6,2.5-7.2
		C36.4,964.8,31.3,959.7,25,959.7z M25,962c5.1,0,9.1,4,9.1,9.1c0,3.1-0.9,4.3-2.1,5.8c-1,1.3-2.1,3-2.4,5.7h-3.5v-8.8
		c1.3-0.5,2.3-1.8,2.3-3.2c0-1.9-1.5-3.4-3.4-3.4c-1.9,0-3.4,1.5-3.4,3.4c0,1.5,1,2.8,2.3,3.2v8.8h-3.5c-0.3-2.7-1.4-4.3-2.4-5.7
		c-1.1-1.5-2.1-2.7-2.1-5.8C15.8,966.1,19.9,962,25,962z M25,969.4c0.6,0,1.1,0.5,1.1,1.1s-0.5,1.1-1.1,1.1c-0.6,0-1.1-0.5-1.1-1.1
		S24.3,969.4,25,969.4z M20,987.1c-0.6,0-1.1,0.6-1.1,1.2c0,0.6,0.6,1.1,1.2,1.1h9.7c0.6,0,1.2-0.5,1.2-1.1c0-0.6-0.5-1.2-1.1-1.2
		c0,0,0,0,0,0h-9.7C20.1,987.1,20,987.1,20,987.1z M22.3,991.7c-0.6,0-1.1,0.6-1.1,1.2c0,0.6,0.6,1.1,1.2,1.1h5.1
		c0.6,0,1.2-0.5,1.2-1.1c0-0.6-0.5-1.2-1.1-1.2c0,0,0,0,0,0h-5.1C22.4,991.7,22.3,991.7,22.3,991.7z"/>
</g>
</svg>
