<?xml version="1.0" encoding="utf-8"?>
<!-- Generator: Adobe Illustrator 24.0.2, SVG Export Plug-In . SVG Version: 6.00 Build 0)  -->
<svg version="1.1" id="Livello_1" xmlns="http://www.w3.org/2000/svg" xmlns:xlink="http://www.w3.org/1999/xlink" x="0px" y="0px"
	 viewBox="0 0 50 50" style="enable-background:new 0 0 50 50;" xml:space="preserve">
<style type="text/css">
	.st0{fill:#61E8E1;}
</style>
<g>
	<path class="st0" d="M44.5,6h-3.6V2.6c0-0.9-0.7-1.6-1.6-1.6s-1.6,0.7-1.6,1.6V6H12.1V2.6c0-0.9-0.7-1.6-1.6-1.6
		C9.7,1,8.9,1.8,8.9,2.6V6H5.3c-2.4,0-4.4,2-4.4,4.4v34.2c0,2.4,2,4.4,4.4,4.4h39.2c2.4,0,4.4-2,4.4-4.4V10.4C48.9,8,47,6,44.5,6z
		 M5.3,8.4h3.6v3.5c0,0.9,0.7,1.6,1.6,1.6c0.9,0,1.6-0.7,1.6-1.6V8.4h25.6v3.5c0,0.9,0.7,1.6,1.6,1.6s1.6-0.7,1.6-1.6V8.4h3.6
		c1.1,0,2,0.9,2,2v6.9H3.3v-6.9C3.3,9.3,4.2,8.4,5.3,8.4z M44.5,46.6H5.3c-1.1,0-2-0.9-2-2V19.7h43.2v24.9
		C46.5,45.7,45.6,46.6,44.5,46.6z"/>
	<path class="st0" d="M27.5,23.7h4.8c0.4,0,0.8,0.4,0.8,0.8v2.1c0,0.4-0.4,0.8-0.8,0.8h-4.8c-0.4,0-0.8-0.4-0.8-0.8v-2.1
		C26.7,24,27.1,23.7,27.5,23.7z"/>
	<path class="st0" d="M37.4,23.7h4.8c0.4,0,0.8,0.4,0.8,0.8v2.1c0,0.4-0.4,0.8-0.8,0.8h-4.8c-0.4,0-0.8-0.4-0.8-0.8v-2.1
		C36.6,24,37,23.7,37.4,23.7z"/>
	<path class="st0" d="M37.4,31.3h4.8c0.4,0,0.8,0.4,0.8,0.8v2.1c0,0.4-0.4,0.8-0.8,0.8h-4.8c-0.4,0-0.8-0.4-0.8-0.8v-2.1
		C36.6,31.7,37,31.3,37.4,31.3z"/>
	<path class="st0" d="M27.5,31.3h4.8c0.4,0,0.8,0.4,0.8,0.8v2.1c0,0.4-0.4,0.8-0.8,0.8h-4.8c-0.4,0-0.8-0.4-0.8-0.8v-2.1
		C26.7,31.7,27.1,31.3,27.5,31.3z"/>
	<path class="st0" d="M27.5,39h4.8c0.4,0,0.8,0.4,0.8,0.8v2.1c0,0.4-0.4,0.8-0.8,0.8h-4.8c-0.4,0-0.8-0.4-0.8-0.8v-2.1
		C26.7,39.3,27.1,39,27.5,39z"/>
	<path class="st0" d="M17.6,31.3h4.8c0.4,0,0.8,0.4,0.8,0.8v2.1c0,0.4-0.4,0.8-0.8,0.8h-4.8c-0.4,0-0.8-0.4-0.8-0.8v-2.1
		C16.8,31.7,17.1,31.3,17.6,31.3z"/>
	<path class="st0" d="M17.6,39h4.8c0.4,0,0.8,0.4,0.8,0.8v2.1c0,0.4-0.4,0.8-0.8,0.8h-4.8c-0.4,0-0.8-0.4-0.8-0.8v-2.1
		C16.8,39.3,17.1,39,17.6,39z"/>
	<path class="st0" d="M7.7,31.3h4.8c0.4,0,0.8,0.4,0.8,0.8v2.1c0,0.4-0.4,0.8-0.8,0.8H7.7c-0.4,0-0.8-0.4-0.8-0.8v-2.1
		C6.9,31.7,7.2,31.3,7.7,31.3z"/>
	<path class="st0" d="M7.7,39h4.8c0.4,0,0.8,0.4,0.8,0.8v2.1c0,0.4-0.4,0.8-0.8,0.8H7.7c-0.4,0-0.8-0.4-0.8-0.8v-2.1
		C6.9,39.3,7.2,39,7.7,39z"/>
	<path class="st0" d="M17.6,23.7h4.8c0.4,0,0.8,0.4,0.8,0.8v2.1c0,0.4-0.4,0.8-0.8,0.8h-4.8c-0.4,0-0.8-0.4-0.8-0.8v-2.1
		C16.8,24,17.1,23.7,17.6,23.7z"/>
</g>
</svg>
