<?xml version="1.0" encoding="utf-8"?>
<!-- Generator: Adobe Illustrator 24.0.2, SVG Export Plug-In . SVG Version: 6.00 Build 0)  -->
<svg version="1.1" id="Livello_1" xmlns="http://www.w3.org/2000/svg" xmlns:xlink="http://www.w3.org/1999/xlink" x="0px" y="0px"
	 viewBox="0 0 50 50" style="enable-background:new 0 0 50 50;" xml:space="preserve">
<style type="text/css">
	.st0{fill:#61E8E1;}
</style>
<g>
	<path class="st0" d="M44.3,31.1c-0.9-0.4-1.8-0.6-2.7-0.6c-0.1,0-0.2,0-0.2,0h-1c0-0.4,0-0.9-0.1-1.3c-0.1-1.1-0.5-2.1-1.1-3.1
		c-0.4-0.7-0.9-1.4-1.5-1.9c-2.5-2.3-6.1-3-9.2-1.6c-0.8-1.4-1.9-2.6-3.3-3.6C20.2,15.7,13.4,17,10,22c-1.3,1.8-1.9,4-1.9,6.2
		c0,0.8,0.1,1.6,0.3,2.4c-4.2,0.4-7.3,4.1-6.9,8.3c0.4,3.9,3.6,6.9,7.5,6.9h32.3c4.2,0,7.6-3.4,7.6-7.6C49,35.1,47.1,32.3,44.3,31.1
		z M41.3,43.4H9c-2.9,0.1-5.3-2.1-5.5-5c-0.1-2.9,2.1-5.3,5-5.5l2.7-0.2l-0.6-2.6c-0.9-4.1,1.3-8.3,5.2-9.8l0,0
		c1-0.4,2.1-0.6,3.2-0.6c1.2,0,2.4,0.3,3.5,0.8c1.6,0.7,3,2,3.9,3.5l1.1,1.8l0.7-0.3l1.2-0.6c2.1-0.9,4.6-0.6,6.4,1
		c1.4,1.2,2.2,2.9,2.2,4.8v2.4h3.3c2.9,0,5.2,2.3,5.2,5.2C46.6,41.1,44.2,43.4,41.3,43.4z"/>
	<path class="st0" d="M26.6,17.2l0.3,0.2c0.4,0.3,1,0.2,1.4-0.2c0,0,0,0,0-0.1c1.4-2.2,4.3-3,6.5-1.6c1.1,0.7,1.9,1.7,2.2,3
		c0.1,0.5,0.2,1.1,0.1,1.6c-0.1,0.4,0.1,0.9,0.5,1.1l0.1,0.1c0.5,0.3,1.2,0.2,1.6-0.4c0.1-0.1,0.2-0.3,0.2-0.5c0-0.3,0.1-0.6,0-0.9
		c0-3.9-3.3-7.1-7.2-7c-2.4,0-4.7,1.3-6,3.4C26,16.4,26.1,16.9,26.6,17.2L26.6,17.2z"/>
	<path class="st0" d="M32.3,10.1c0.7,0,1.2-0.5,1.2-1.2V4.2C33.5,3.5,33,3,32.3,3c-0.7,0-1.2,0.5-1.2,1.2v4.8
		C31.1,9.6,31.7,10.1,32.3,10.1z"/>
	<path class="st0" d="M41.8,19.6c0,0.7,0.5,1.2,1.2,1.2h4.8c0.7,0,1.2-0.5,1.2-1.2s-0.5-1.2-1.2-1.2H43C42.4,18.4,41.8,19,41.8,19.6
		z"/>
	<path class="st0" d="M23.9,12.9c0.5,0.5,1.2,0.5,1.7,0s0.5-1.2,0-1.7l-3.4-3.4c-0.5-0.5-1.2-0.5-1.7,0s-0.5,1.2,0,1.7L23.9,12.9z"
		/>
	<path class="st0" d="M42.6,28.3l-0.2-0.2l0,0.1C42.6,28.3,42.6,28.3,42.6,28.3z"/>
	<path class="st0" d="M40.7,12.9l3.4-3.4c0.5-0.5,0.5-1.2,0-1.7c-0.5-0.5-1.2-0.5-1.7,0L39,11.2c-0.5,0.5-0.5,1.2,0,1.7
		C39.5,13.4,40.3,13.4,40.7,12.9z"/>
</g>
</svg>
